<svg xmlns="http://www.w3.org/2000/svg" width="79" height="80" fill="none"><path fill="#020E28" d="m6.334 71.141 2.306.698a4.3 4.3 0 0 1-.733 1.62c-.323.426-.75.764-1.24.981a4.6 4.6 0 0 1-1.883.332q-1.389 0-2.269-.405a3.6 3.6 0 0 1-1.518-1.419q-.64-1.015-.639-2.598 0-2.114 1.124-3.247t3.18-1.134q1.608 0 2.53.65t1.367 1.989l-2.32.517a2 2 0 0 0-.256-.569 1.5 1.5 0 0 0-.54-.465 1.66 1.66 0 0 0-2.084.556q-.36.534-.362 1.676 0 1.418.431 1.941a1.47 1.47 0 0 0 1.207.526c.497 0 .885-.142 1.142-.424a2.63 2.63 0 0 0 .557-1.224Zm8.817 2.079h-2.983l-.415 1.406H9.07l3.2-8.514h2.869l3.2 8.514h-2.76zm-.545-1.84-.94-3.061-.93 3.061zm4.596 3.246v-8.514h4.386a6.4 6.4 0 0 1 1.864.21c.423.135.789.408 1.04.775a2.4 2.4 0 0 1-.739 3.435c-.288.158-.6.27-.923.331.454.101.85.375 1.106.763a3.4 3.4 0 0 1 .368.529l1.273 2.466h-2.972l-1.406-2.6a2 2 0 0 0-.476-.664 1.1 1.1 0 0 0-.645-.197h-.232v3.455zm2.644-5.064h1.11a4 4 0 0 0 .695-.116.7.7 0 0 0 .428-.267.8.8 0 0 0 .166-.497.78.78 0 0 0-.26-.633c-.174-.146-.498-.22-.982-.22h-1.16zm10.639 1.981V69.77h4.065v3.63a8.3 8.3 0 0 1-2.064 1.083 7 7 0 0 1-2.128.289q-1.517 0-2.472-.518a3.53 3.53 0 0 1-1.48-1.538 5.05 5.05 0 0 1-.526-2.347 4.9 4.9 0 0 1 .574-2.424 3.73 3.73 0 0 1 1.684-1.566q.865-.411 2.32-.411 1.413 0 2.113.255c.449.159.849.432 1.16.792.33.398.566.863.695 1.363l-2.538.453a1.38 1.38 0 0 0-.53-.738 1.66 1.66 0 0 0-.957-.255 1.73 1.73 0 0 0-1.38.6q-.515.6-.513 1.903 0 1.382.52 1.974t1.45.592c.285 0 .569-.042.841-.128q.483-.166.917-.436v-.8zm5.296-1.167q0-2.085 1.16-3.248 1.16-1.162 3.235-1.16 2.124 0 3.275 1.14t1.15 3.198q0 1.491-.497 2.447a3.6 3.6 0 0 1-1.452 1.491q-.95.532-2.367.532t-2.384-.464a3.6 3.6 0 0 1-1.53-1.452q-.59-.993-.59-2.484m2.63.011q0 1.288.48 1.852a1.813 1.813 0 0 0 2.616.011q.465-.552.466-1.979 0-1.203-.486-1.757a1.66 1.66 0 0 0-1.316-.555 1.6 1.6 0 0 0-1.277.563q-.482.566-.482 1.865Zm10.831 1.469 1.67-.166q.152.842.614 1.237c.354.278.797.419 1.246.394q.83 0 1.252-.351a1.05 1.05 0 0 0 .421-.829.77.77 0 0 0-.177-.514 1.4 1.4 0 0 0-.619-.37q-.303-.105-1.377-.37-1.383-.344-1.94-.843a2.22 2.22 0 0 1-.784-1.714c0-.433.129-.856.37-1.215.258-.389.63-.69 1.063-.864a4.3 4.3 0 0 1 1.674-.276q1.6 0 2.412.702a2.47 2.47 0 0 1 .85 1.875l-1.719.076q-.11-.663-.472-.944-.363-.282-1.09-.287a1.97 1.97 0 0 0-1.173.308.62.62 0 0 0-.272.527.65.65 0 0 0 .255.517q.332.275 1.58.57a8.5 8.5 0 0 1 1.855.612c.387.198.712.497.942.866.234.412.35.882.331 1.356a2.5 2.5 0 0 1-.408 1.37 2.43 2.43 0 0 1-1.148.95 4.8 4.8 0 0 1-1.854.31q-1.614 0-2.486-.746-.872-.745-1.016-2.181m8.372 2.77v-8.514h1.72v3.352h3.368v-3.352h1.722v8.514h-1.722v-3.723h-3.369v3.723zm8.532 0v-8.514h1.72v8.514zm3.357 0v-8.514h2.758q1.57 0 2.044.128c.491.128.923.42 1.225.829.347.48.523 1.065.497 1.657a2.8 2.8 0 0 1-.283 1.318c-.17.334-.42.623-.724.84-.268.192-.57.33-.89.403a10 10 0 0 1-1.784.123H73.22v3.211zm1.717-7.073v2.415h.94q1.016.001 1.36-.133a1.12 1.12 0 0 0 .732-1.08 1.1 1.1 0 0 0-.273-.766 1.2 1.2 0 0 0-.692-.378 8.4 8.4 0 0 0-1.236-.058zM18.86 78.215l-.637 1.13v.629h-.242v-.634l-.637-1.125h.289l.351.643.128.259.12-.234.352-.663.275-.005Zm2.955.868q.004.21-.055.41a.9.9 0 0 1-.15.283.6.6 0 0 1-.222.166.7.7 0 0 1-.269.055.7.7 0 0 1-.295-.062.54.54 0 0 1-.209-.177.8.8 0 0 1-.123-.282 1.5 1.5 0 0 1-.041-.374 1.3 1.3 0 0 1 .056-.407.9.9 0 0 1 .15-.285.6.6 0 0 1 .222-.165.7.7 0 0 1 .562 0 .6.6 0 0 1 .21.177q.088.129.124.28.043.188.04.381m-.248.017q0-.142-.024-.282a.7.7 0 0 0-.076-.222.4.4 0 0 0-.134-.144.4.4 0 0 0-.2-.052.33.33 0 0 0-.195.055.4.4 0 0 0-.134.15.7.7 0 0 0-.078.218 1.5 1.5 0 0 0-.002.552q.021.117.077.22a.36.36 0 0 0 .332.194.35.35 0 0 0 .203-.056.4.4 0 0 0 .134-.147.7.7 0 0 0 .08-.22 1.4 1.4 0 0 0 .017-.266m3.207.261a.8.8 0 0 1-.04.264.6.6 0 0 1-.121.2.54.54 0 0 1-.194.128.7.7 0 0 1-.265.045.8.8 0 0 1-.279-.043.46.46 0 0 1-.291-.312 1 1 0 0 1-.032-.245v-1.184h.239v1.16a.7.7 0 0 0 .02.181.3.3 0 0 0 .063.131.3.3 0 0 0 .116.08q.08.027.166.026a.33.33 0 0 0 .281-.11c.067-.09.099-.2.091-.31V78.21h.24l.006 1.15Zm3.075.613h-.27l-.262-.562a.6.6 0 0 0-.061-.108.26.26 0 0 0-.144-.103.4.4 0 0 0-.095-.01h-.113v.783h-.24v-1.759h.474a1 1 0 0 1 .263.035q.102.028.183.093a.4.4 0 0 1 .103.147.53.53 0 0 1 .008.343.42.42 0 0 1-.19.237.5.5 0 0 1-.166.067.27.27 0 0 1 .126.09q.06.076.104.165zm-.383-1.275a.26.26 0 0 0-.088-.212.4.4 0 0 0-.248-.07h-.226V79h.194a.6.6 0 0 0 .153-.02.3.3 0 0 0 .114-.058.23.23 0 0 0 .075-.094q.03-.061.03-.128h-.004Zm4.857.799a.44.44 0 0 1-.194.376.7.7 0 0 1-.22.093 1.2 1.2 0 0 1-.284.031h-.14l-.132-.013c-.043 0-.083-.011-.12-.02l-.104-.023v-.23a1.4 1.4 0 0 0 .514.08 1 1 0 0 0 .197-.017.4.4 0 0 0 .133-.055.2.2 0 0 0 .075-.086.3.3 0 0 0 .025-.118.2.2 0 0 0-.04-.121.4.4 0 0 0-.105-.091 1 1 0 0 0-.147-.073l-.166-.068a2 2 0 0 1-.166-.075.7.7 0 0 1-.147-.097.4.4 0 0 1-.105-.131.4.4 0 0 1-.04-.18.5.5 0 0 1 .039-.177.4.4 0 0 1 .117-.156.6.6 0 0 1 .204-.109 1 1 0 0 1 .297-.041h.096l.105.011.104.017.096.02v.215a1.5 1.5 0 0 0-.408-.06.54.54 0 0 0-.301.068.22.22 0 0 0-.098.184.2.2 0 0 0 .04.123.4.4 0 0 0 .104.091 1 1 0 0 0 .148.075l.165.068q.088.034.166.076a.7.7 0 0 1 .148.1.4.4 0 0 1 .144.313m3.014.476h-1.013v-1.76h.243v1.556h.77zm3.146-.891q.005.21-.057.41a.8.8 0 0 1-.15.283.6.6 0 0 1-.223.166.7.7 0 0 1-.268.055.7.7 0 0 1-.295-.062.55.55 0 0 1-.21-.177.8.8 0 0 1-.122-.282 1.6 1.6 0 0 1-.04-.375 1.4 1.4 0 0 1 .055-.406q.046-.157.15-.285a.6.6 0 0 1 .221-.166.7.7 0 0 1 .269-.054.58.58 0 0 1 .504.239q.087.128.124.28.044.184.042.374m-.249.017q0-.143-.025-.282a.7.7 0 0 0-.075-.222.4.4 0 0 0-.135-.144.4.4 0 0 0-.201-.052.34.34 0 0 0-.194.055.4.4 0 0 0-.134.15.8.8 0 0 0-.078.218 1.7 1.7 0 0 0-.002.552q.021.116.077.22a.36.36 0 0 0 .331.194.34.34 0 0 0 .196-.054.4.4 0 0 0 .136-.148.8.8 0 0 0 .078-.219q.026-.132.026-.268m3.191-.583a1 1 0 0 0-.202-.082.8.8 0 0 0-.225-.028.6.6 0 0 0-.25.05.5.5 0 0 0-.183.14.6.6 0 0 0-.114.218 1 1 0 0 0-.04.284q-.001.145.031.288a.6.6 0 0 0 .101.217.45.45 0 0 0 .176.136.6.6 0 0 0 .257.046h.114l.056-.01.05-.014v-.56h-.36v-.198h.596v.895a1.2 1.2 0 0 1-.242.08c-.041 0-.084.015-.126.02q-.06.003-.122 0a.9.9 0 0 1-.332-.057.66.66 0 0 1-.402-.442 1.2 1.2 0 0 1-.055-.383 1.1 1.1 0 0 1 .061-.39.8.8 0 0 1 .166-.29.7.7 0 0 1 .263-.18.9.9 0 0 1 .332-.064q.113 0 .225.02a1 1 0 0 1 .206.068zm3.178 1.457h-.26l-.123-.383h-.733l-.122.383h-.249l.584-1.76h.331zm-.451-.597-.298-.942-.297.942zm3.337.597h-.312l-.514-1.096-.147-.353v1.449h-.224v-1.76h.308l.497 1.04.176.403v-1.442h.224zm4.555 0h-.239v-.808h-.74v.808h-.238v-1.76h.239v.745h.74v-.744h.238zm2.942 0h-.994v-1.76h.994v.203h-.76v.545h.73v.203h-.73v.605h.76zm3.167 0h-.27l-.263-.562a1 1 0 0 0-.06-.108.26.26 0 0 0-.145-.103.4.4 0 0 0-.096-.01h-.113v.783h-.23v-1.759h.47q.135-.003.264.035a.5.5 0 0 1 .18.093.4.4 0 0 1 .105.147.53.53 0 0 1 .008.343.43.43 0 0 1-.19.237.5.5 0 0 1-.166.067q.077.026.126.09.06.076.106.165zm-.383-1.275a.25.25 0 0 0-.09-.212.4.4 0 0 0-.247-.07h-.227V79h.194a.5.5 0 0 0 .152-.02.3.3 0 0 0 .117-.058.3.3 0 0 0 .074-.094.3.3 0 0 0 .027-.128Zm3.268 1.275h-.994v-1.76h.994v.203h-.76v.545h.73v.203h-.73v.605h.76zM27.481 32.208l39.492 12.93-35.615-9.333 27.285 9.048-23.548-5.608s-12.494-3.302-11.77.43c.725 3.734 11.201 8.62 16.802 9.909 3.625.837 14.468 2.335 21.669 3.288a31.3 31.3 0 0 0 6.133-9.246z"/><path fill="#FD5523" d="M16.915 53.023c1.439-4.189.796-8.813-1.611-12.533-3.86-5.968-3.763-12.733-3.763-12.733s6.246-6.246 56.526 15.51a31.2 31.2 0 0 0 2.387-12.002C70.454 13.997 56.457 0 39.19 0 21.924 0 7.925 13.997 7.925 31.265a31.16 31.16 0 0 0 8.943 21.891zM39.683 9.427l4.07-.77a5 5 0 0 1 3.046.387 9.34 9.34 0 0 1 5.36 8.454v4.817l4.717-.497a5.8 5.8 0 0 1 2.087.166 9.334 9.334 0 0 1 6.944 9.024v10.307a477 477 0 0 0-8.555-3.552v-8.839a4.735 4.735 0 0 0-5.194-4.712v11.502a326 326 0 0 0-7.318-2.72V16.55a4.33 4.33 0 0 0-5.07-4.283l-.087.015zM29.389 19.802l5.32-.704a9.33 9.33 0 0 1 6.414 8.867v3.721a192 192 0 0 0-6.884-2.195V25.98a4.33 4.33 0 0 0-4.85-4.299v-1.878Z"/><path fill="#020E28" d="M17.468 53.749a31.265 31.265 0 0 0 43.446 0z"/></svg>