<svg xmlns="http://www.w3.org/2000/svg" width="11" height="16" fill="none"><path fill="#fff" d="M5.5 0q.437 0 .719.281A.97.97 0 0 1 6.5 1v1.125h.156q.282.063.813.156.562.095.906.156.375.126.594.47a.95.95 0 0 1 .125.75q-.126.405-.469.624a1.03 1.03 0 0 1-.75.094 5 5 0 0 0-.656-.125 14 14 0 0 1-.75-.125h-.125q-1.532-.219-2.438.156-.812.313-.875.875-.062.47.031.625.094.188.407.438.78.437 2.281.812l.094.032q.687.156 1.437.437.72.25 1.344.625.687.438 1.125 1.25.375.844.188 1.813-.188.906-.72 1.5a3.56 3.56 0 0 1-1.343.937 5.5 5.5 0 0 1-1.375.344V15a.97.97 0 0 1-.281.719A.97.97 0 0 1 5.5 16a.97.97 0 0 1-.719-.281A.97.97 0 0 1 4.5 15v-1.094q-.03-.03-.031 0a12 12 0 0 1-1.407-.312 11 11 0 0 1-1.468-.5 1.08 1.08 0 0 1-.532-.563 1.13 1.13 0 0 1 .032-.781q.188-.375.531-.531.375-.126.75.031.53.219 1.219.406.656.188 1.156.281 1.531.189 2.375-.187.78-.312.844-.875.062-.5-.032-.656-.093-.187-.406-.406-.78-.47-2.281-.844l-.094-.031q-.687-.157-1.437-.438a7.2 7.2 0 0 1-1.344-.625q-.687-.437-1.125-1.25-.375-.844-.188-1.844.187-.906.75-1.5a3.7 3.7 0 0 1 1.375-.875A4.7 4.7 0 0 1 4.5 2.094V1q0-.438.281-.719A.97.97 0 0 1 5.5 0"/></svg>