<svg xmlns="http://www.w3.org/2000/svg" width="118" height="75" fill="none"><path fill="#FD5523" d="M26.416 0C11.839 0 0 12.034 0 26.822c0 10 5.35 18.983 13.86 23.644-.463 4.619-2.316 14.11-9.984 16.23A4.21 4.21 0 0 0 .8 71.27c.253 2.077 1.938 3.687 4.045 3.73h.59c3.834 0 25.025-.848 38.76-19.365 8.89-12.034 11.543-25.043 7.499-36.526C48.239 7.67 38.086 0 26.416 0M37.37 50.593c-5.477 7.373-12.555 11.356-18.664 13.475 3.707-7.415 3.707-15.678 3.707-16.229a4.22 4.22 0 0 0-2.654-3.898C12.892 41.1 8.426 34.407 8.426 26.822c0-10.127 8.09-18.347 17.99-18.347 7.92 0 14.787 5.254 17.189 13.262 4.255 12.034-2.064 23.22-6.235 28.856m78.783-31.483C112.741 7.67 102.629 0 90.959 0 76.382 0 64.544 12.034 64.544 26.822c0 10 5.35 18.983 13.86 23.644-.463 4.619-2.317 14.11-9.984 16.23a4.21 4.21 0 0 0-3.076 4.575c.253 2.077 1.938 3.687 4.045 3.73h.59c3.833 0 25.025-.848 38.759-19.365 8.805-11.992 11.46-25.043 7.415-36.526m-14.282 31.483c-5.477 7.373-12.555 11.356-18.664 13.475 3.708-7.415 3.708-15.678 3.708-16.229a4.22 4.22 0 0 0-2.654-3.898c-6.91-2.797-11.376-9.492-11.376-17.077 0-10.127 8.09-18.347 17.99-18.347 7.92 0 14.788 5.254 17.189 13.263 4.297 11.991-2.022 23.178-6.193 28.813" opacity=".1"/></svg>